<svg xmlns="http://www.w3.org/2000/svg" viewBox="0 0 512 512">
  <defs>
    <linearGradient id="bg" x1="0" y1="0" x2="1" y2="1">
      <stop offset="0%" stop-color="#0d1d33"/>
      <stop offset="100%" stop-color="#07111f"/>
    </linearGradient>
    <linearGradient id="accent" x1="0" y1="0" x2="1" y2="1">
      <stop offset="0%" stop-color="#63a8ff"/>
      <stop offset="100%" stop-color="#39d2a1"/>
    </linearGradient>
  </defs>
  <rect width="512" height="512" rx="116" fill="url(#bg)"/>
  <circle cx="380" cy="124" r="86" fill="#63a8ff" opacity=".16"/>
  <circle cx="138" cy="400" r="92" fill="#ffbf59" opacity=".12"/>
  <rect x="92" y="108" width="328" height="296" rx="42" fill="#0f1d31" stroke="#294566" stroke-width="8"/>
  <rect x="122" y="146" width="268" height="28" rx="14" fill="#18314f"/>
  <rect x="122" y="204" width="94" height="152" rx="24" fill="url(#accent)"/>
  <rect x="240" y="244" width="60" height="112" rx="20" fill="#63a8ff"/>
  <rect x="322" y="178" width="68" height="178" rx="24" fill="#39d2a1"/>
  <path d="M148 329c32-34 55-52 89-52 26 0 46 8 66 24 11 9 24 14 39 14h48" fill="none" stroke="#eef4ff" stroke-width="18" stroke-linecap="round"/>
</svg>
